<svg xmlns="http://www.w3.org/2000/svg" xmlns:xlink="http://www.w3.org/1999/xlink" width="100" zoomAndPan="magnify" viewBox="0 0 75 74.999997" height="100" preserveAspectRatio="xMidYMid meet" version="1.0"><defs><clipPath id="a1919ec22c"><path d="M 3 2 L 74 2 L 74 72 L 3 72 Z M 3 2 " clip-rule="nonzero"/></clipPath><clipPath id="d74ef07816"><path d="M 18.328125 -13.707031 L 84.488281 8.375 L 56.472656 92.324219 L -9.691406 70.242188 Z M 18.328125 -13.707031 " clip-rule="nonzero"/></clipPath><clipPath id="7e546dd3d4"><path d="M 18.328125 -13.707031 L 84.488281 8.375 L 56.472656 92.324219 L -9.691406 70.242188 Z M 18.328125 -13.707031 " clip-rule="nonzero"/></clipPath><clipPath id="c7b1b18fa8"><path d="M 49.339844 3.804688 C 48.253906 3.445312 47.152344 3.136719 46.039062 2.882812 C 44.921875 2.632812 43.792969 2.433594 42.660156 2.292969 C 41.523438 2.148438 40.382812 2.0625 39.238281 2.03125 C 38.09375 2 36.953125 2.027344 35.808594 2.105469 C 34.667969 2.1875 33.53125 2.324219 32.402344 2.519531 C 31.277344 2.710938 30.160156 2.957031 29.054688 3.261719 C 27.953125 3.5625 26.863281 3.917969 25.796875 4.328125 C 24.726562 4.734375 23.679688 5.195312 22.65625 5.707031 C 21.632812 6.21875 20.636719 6.78125 19.664062 7.390625 C 18.695312 8 17.761719 8.652344 16.855469 9.355469 C 15.949219 10.054688 15.082031 10.800781 14.25 11.585938 C 13.417969 12.375 12.628906 13.199219 11.875 14.0625 C 11.125 14.925781 10.417969 15.824219 9.757812 16.757812 C 9.09375 17.691406 8.476562 18.65625 7.910156 19.648438 C 7.34375 20.644531 6.824219 21.664062 6.355469 22.707031 C 5.886719 23.75 5.472656 24.816406 5.109375 25.902344 C -7.753906 70.507812 54.941406 91.417969 71.4375 48.039062 C 71.796875 46.953125 72.105469 45.851562 72.359375 44.734375 C 72.613281 43.617188 72.808594 42.492188 72.953125 41.355469 C 73.09375 40.222656 73.183594 39.082031 73.210938 37.9375 C 73.242188 36.792969 73.21875 35.648438 73.136719 34.507812 C 73.054688 33.367188 72.917969 32.230469 72.726562 31.101562 C 72.53125 29.972656 72.285156 28.855469 71.984375 27.753906 C 71.679688 26.648438 71.324219 25.5625 70.917969 24.492188 C 70.507812 23.425781 70.046875 22.378906 69.535156 21.351562 C 69.023438 20.328125 68.464844 19.332031 67.855469 18.363281 C 67.246094 17.394531 66.589844 16.457031 65.886719 15.554688 C 65.1875 14.648438 64.441406 13.78125 63.65625 12.949219 C 62.871094 12.117188 62.046875 11.324219 61.179688 10.574219 C 60.316406 9.824219 59.417969 9.117188 58.484375 8.453125 C 57.550781 7.792969 56.585938 7.175781 55.59375 6.609375 C 54.601562 6.039062 53.582031 5.523438 52.535156 5.054688 C 51.492188 4.585938 50.425781 4.167969 49.339844 3.804688 Z M 28.371094 66.644531 C 27.398438 66.320312 26.445312 65.945312 25.511719 65.527344 C 24.574219 65.109375 23.664062 64.644531 22.773438 64.136719 C 21.886719 63.628906 21.023438 63.078125 20.1875 62.484375 C 19.351562 61.890625 18.550781 61.261719 17.777344 60.589844 C 17.003906 59.917969 16.265625 59.207031 15.5625 58.464844 C 14.855469 57.71875 14.191406 56.941406 13.5625 56.132812 C 12.9375 55.324219 12.351562 54.484375 11.804688 53.617188 C 11.261719 52.75 10.757812 51.859375 10.300781 50.945312 C 9.84375 50.027344 9.429688 49.089844 9.066406 48.132812 C 8.699219 47.179688 8.382812 46.207031 8.109375 45.21875 C 7.839844 44.230469 7.621094 43.230469 7.445312 42.222656 C 7.273438 41.210938 7.152344 40.195312 7.078125 39.175781 C 7.007812 38.152344 6.984375 37.128906 7.011719 36.105469 C 7.039062 35.082031 7.117188 34.0625 7.242188 33.046875 C 7.371094 32.03125 7.546875 31.023438 7.773438 30.023438 C 8 29.023438 8.277344 28.039062 8.597656 27.066406 C 23.367188 -11.753906 79.457031 6.976562 67.945312 46.875 C 67.621094 47.84375 67.25 48.796875 66.828125 49.734375 C 66.410156 50.667969 65.949219 51.578125 65.4375 52.46875 C 64.929688 53.359375 64.378906 54.21875 63.789062 55.054688 C 63.195312 55.890625 62.5625 56.695312 61.890625 57.46875 C 61.21875 58.242188 60.511719 58.980469 59.765625 59.683594 C 59.023438 60.386719 58.246094 61.050781 57.4375 61.679688 C 56.625 62.308594 55.789062 62.894531 54.921875 63.4375 C 54.054688 63.984375 53.160156 64.484375 52.246094 64.941406 C 51.328125 65.398438 50.394531 65.8125 49.4375 66.179688 C 48.480469 66.542969 47.507812 66.863281 46.519531 67.132812 C 45.53125 67.402344 44.53125 67.625 43.523438 67.796875 C 42.515625 67.96875 41.5 68.089844 40.476562 68.164062 C 39.453125 68.238281 38.433594 68.261719 37.410156 68.234375 C 36.382812 68.203125 35.363281 68.128906 34.347656 68 C 33.332031 67.871094 32.324219 67.695312 31.324219 67.46875 C 30.328125 67.242188 29.339844 66.96875 28.371094 66.644531 Z M 58.460938 34.660156 L 57.75 31.179688 C 57.683594 30.859375 57.589844 30.550781 57.464844 30.25 C 57.339844 29.949219 57.1875 29.660156 57.011719 29.386719 C 56.832031 29.113281 56.628906 28.859375 56.402344 28.625 C 56.175781 28.390625 55.929688 28.179688 55.660156 27.992188 C 55.394531 27.804688 55.113281 27.644531 54.816406 27.511719 C 54.519531 27.375 54.210938 27.269531 53.894531 27.195312 C 53.578125 27.117188 53.257812 27.074219 52.929688 27.058594 C 52.605469 27.042969 52.28125 27.058594 51.957031 27.105469 C 51.726562 27.136719 51.539062 27.058594 51.398438 26.875 C 50.929688 26.269531 50.421875 25.703125 49.875 25.167969 C 49.707031 25 49.652344 24.800781 49.714844 24.570312 C 49.800781 24.257812 49.855469 23.9375 49.878906 23.609375 C 49.902344 23.285156 49.894531 22.960938 49.855469 22.636719 C 49.820312 22.3125 49.753906 21.996094 49.65625 21.683594 C 49.558594 21.375 49.429688 21.074219 49.277344 20.789062 C 49.121094 20.5 48.941406 20.230469 48.738281 19.976562 C 48.53125 19.722656 48.304688 19.492188 48.054688 19.28125 C 47.804688 19.070312 47.539062 18.886719 47.253906 18.726562 C 46.972656 18.566406 46.675781 18.4375 46.363281 18.332031 L 42.996094 17.207031 C 42.6875 17.105469 42.371094 17.03125 42.046875 16.988281 C 41.722656 16.945312 41.398438 16.933594 41.070312 16.953125 C 40.746094 16.972656 40.425781 17.019531 40.109375 17.101562 C 39.789062 17.179688 39.484375 17.289062 39.1875 17.425781 C 38.890625 17.5625 38.613281 17.726562 38.347656 17.917969 C 38.082031 18.109375 37.835938 18.324219 37.613281 18.558594 C 37.386719 18.796875 37.1875 19.054688 37.011719 19.328125 C 36.835938 19.601562 36.6875 19.894531 36.566406 20.195312 C 36.476562 20.414062 36.316406 20.535156 36.085938 20.566406 C 35.222656 20.523438 33.90625 21.316406 33.257812 20.863281 C 33.027344 20.632812 32.777344 20.425781 32.503906 20.242188 C 32.234375 20.058594 31.953125 19.902344 31.652344 19.773438 C 31.351562 19.640625 31.042969 19.542969 30.726562 19.472656 C 30.40625 19.398438 30.085938 19.359375 29.761719 19.347656 C 29.433594 19.339844 29.109375 19.359375 28.789062 19.410156 C 28.464844 19.460938 28.152344 19.542969 27.84375 19.65625 C 27.539062 19.765625 27.246094 19.902344 26.964844 20.070312 C 26.683594 20.238281 26.421875 20.429688 26.175781 20.644531 L 23.519531 22.996094 C 23.277344 23.214844 23.054688 23.453125 22.855469 23.710938 C 22.65625 23.96875 22.484375 24.242188 22.335938 24.535156 C 22.191406 24.824219 22.070312 25.128906 21.984375 25.441406 C 21.894531 25.753906 21.832031 26.074219 21.804688 26.398438 C 21.773438 26.722656 21.777344 27.046875 21.808594 27.371094 C 21.839844 27.695312 21.902344 28.015625 21.996094 28.328125 C 22.089844 28.640625 22.210938 28.941406 22.359375 29.230469 C 22.507812 29.519531 22.683594 29.792969 22.886719 30.050781 C 23.25 30.734375 22.320312 31.945312 22.253906 32.777344 C 22.203125 33.027344 22.058594 33.1875 21.8125 33.261719 C 21.5 33.34375 21.195312 33.457031 20.902344 33.601562 C 20.609375 33.742188 20.328125 33.910156 20.066406 34.105469 C 19.804688 34.300781 19.566406 34.515625 19.34375 34.757812 C 19.125 34.996094 18.925781 35.253906 18.757812 35.53125 C 18.585938 35.808594 18.441406 36.101562 18.324219 36.40625 C 18.207031 36.710938 18.121094 37.023438 18.0625 37.34375 C 18.003906 37.664062 17.976562 37.988281 17.980469 38.3125 C 17.984375 38.640625 18.019531 38.964844 18.085938 39.28125 L 18.796875 42.761719 C 18.863281 43.082031 18.957031 43.390625 19.082031 43.691406 C 19.207031 43.992188 19.355469 44.28125 19.535156 44.554688 C 19.714844 44.828125 19.917969 45.078125 20.144531 45.3125 C 20.371094 45.546875 20.617188 45.761719 20.882812 45.949219 C 21.152344 46.136719 21.433594 46.296875 21.730469 46.429688 C 22.027344 46.566406 22.332031 46.671875 22.652344 46.746094 C 22.96875 46.824219 23.289062 46.867188 23.617188 46.882812 C 23.941406 46.898438 24.265625 46.882812 24.589844 46.835938 C 24.820312 46.804688 25.007812 46.878906 25.148438 47.066406 C 25.617188 47.671875 26.121094 48.238281 26.667969 48.773438 C 26.839844 48.941406 26.894531 49.140625 26.832031 49.371094 C 26.746094 49.683594 26.691406 50.003906 26.667969 50.328125 C 26.644531 50.65625 26.652344 50.980469 26.6875 51.304688 C 26.726562 51.628906 26.792969 51.945312 26.890625 52.257812 C 26.988281 52.566406 27.113281 52.867188 27.269531 53.152344 C 27.421875 53.441406 27.601562 53.710938 27.808594 53.964844 C 28.011719 54.21875 28.242188 54.449219 28.488281 54.660156 C 28.738281 54.871094 29.007812 55.054688 29.289062 55.214844 C 29.574219 55.375 29.871094 55.503906 30.179688 55.609375 L 33.550781 56.734375 C 33.859375 56.835938 34.175781 56.910156 34.5 56.953125 C 34.824219 56.996094 35.148438 57.007812 35.472656 56.988281 C 35.800781 56.96875 36.121094 56.921875 36.4375 56.839844 C 36.753906 56.761719 37.0625 56.652344 37.355469 56.515625 C 37.652344 56.378906 37.933594 56.214844 38.199219 56.023438 C 38.464844 55.832031 38.707031 55.617188 38.933594 55.382812 C 39.15625 55.144531 39.359375 54.886719 39.535156 54.613281 C 39.710938 54.335938 39.859375 54.046875 39.980469 53.746094 C 40.070312 53.527344 40.230469 53.40625 40.460938 53.375 C 41.324219 53.414062 42.636719 52.625 43.289062 53.078125 C 43.519531 53.308594 43.769531 53.515625 44.039062 53.699219 C 44.308594 53.882812 44.59375 54.039062 44.894531 54.167969 C 45.191406 54.300781 45.5 54.398438 45.820312 54.46875 C 46.136719 54.542969 46.460938 54.582031 46.785156 54.59375 C 47.113281 54.601562 47.433594 54.582031 47.757812 54.53125 C 48.078125 54.480469 48.394531 54.398438 48.699219 54.285156 C 49.007812 54.175781 49.300781 54.039062 49.582031 53.871094 C 49.859375 53.703125 50.125 53.511719 50.367188 53.296875 L 53.023438 50.945312 C 53.269531 50.726562 53.492188 50.488281 53.6875 50.230469 C 53.886719 49.972656 54.0625 49.699219 54.207031 49.40625 C 54.355469 49.117188 54.472656 48.8125 54.5625 48.5 C 54.652344 48.1875 54.710938 47.867188 54.742188 47.542969 C 54.769531 47.21875 54.769531 46.894531 54.738281 46.570312 C 54.703125 46.246094 54.640625 45.925781 54.550781 45.613281 C 54.457031 45.300781 54.335938 45 54.1875 44.710938 C 54.035156 44.421875 53.863281 44.148438 53.660156 43.890625 C 53.308594 43.375 53.878906 42.753906 53.980469 42.214844 C 54.230469 41.726562 54.132812 40.878906 54.730469 40.679688 C 55.046875 40.597656 55.351562 40.484375 55.644531 40.339844 C 55.9375 40.199219 56.214844 40.03125 56.476562 39.835938 C 56.738281 39.640625 56.980469 39.425781 57.199219 39.183594 C 57.421875 38.945312 57.617188 38.6875 57.789062 38.410156 C 57.960938 38.132812 58.105469 37.839844 58.222656 37.535156 C 58.339844 37.230469 58.425781 36.917969 58.484375 36.597656 C 58.539062 36.277344 58.566406 35.953125 58.5625 35.628906 C 58.558594 35.300781 58.523438 34.976562 58.460938 34.660156 Z M 50.722656 40.257812 C 50.011719 42.222656 49.246094 44.375 50.765625 46.164062 C 50.882812 46.3125 50.96875 46.476562 51.023438 46.660156 C 51.074219 46.839844 51.09375 47.023438 51.078125 47.210938 C 51.058594 47.402344 51.007812 47.578125 50.925781 47.746094 C 50.839844 47.917969 50.726562 48.0625 50.585938 48.1875 L 47.925781 50.542969 C 47.785156 50.667969 47.625 50.761719 47.449219 50.828125 C 47.269531 50.890625 47.085938 50.917969 46.898438 50.914062 C 46.710938 50.90625 46.527344 50.867188 46.355469 50.792969 C 46.179688 50.71875 46.027344 50.613281 45.894531 50.480469 C 44.296875 48.730469 42.019531 49.277344 39.984375 49.726562 C 39.214844 49.828125 38.523438 50.117188 37.910156 50.59375 C 37.296875 51.070312 36.847656 51.667969 36.558594 52.390625 C 36.488281 52.5625 36.386719 52.71875 36.257812 52.855469 C 36.128906 52.992188 35.976562 53.101562 35.804688 53.179688 C 35.632812 53.261719 35.453125 53.304688 35.265625 53.316406 C 35.078125 53.328125 34.894531 53.300781 34.714844 53.242188 L 31.34375 52.117188 C 31.164062 52.058594 31.003906 51.964844 30.859375 51.84375 C 30.714844 51.722656 30.597656 51.578125 30.507812 51.410156 C 30.417969 51.242188 30.363281 51.0625 30.34375 50.875 C 30.320312 50.6875 30.335938 50.5 30.386719 50.320312 C 31.105469 48.019531 29.484375 46.359375 28.058594 44.816406 C 27.585938 44.207031 26.996094 43.757812 26.28125 43.464844 C 25.566406 43.175781 24.828125 43.085938 24.066406 43.195312 C 23.878906 43.222656 23.691406 43.214844 23.507812 43.167969 C 23.324219 43.125 23.15625 43.046875 23 42.9375 C 22.847656 42.832031 22.71875 42.695312 22.613281 42.539062 C 22.511719 42.378906 22.441406 42.210938 22.402344 42.023438 L 21.691406 38.546875 C 21.652344 38.359375 21.652344 38.175781 21.683594 37.988281 C 21.71875 37.804688 21.785156 37.628906 21.882812 37.46875 C 21.984375 37.308594 22.109375 37.171875 22.261719 37.058594 C 22.414062 36.945312 22.578125 36.867188 22.761719 36.816406 C 23.195312 36.683594 23.601562 36.488281 23.980469 36.238281 C 24.359375 35.988281 24.695312 35.6875 24.984375 35.339844 C 25.277344 34.992188 25.515625 34.609375 25.695312 34.191406 C 25.878906 33.777344 25.996094 33.34375 26.054688 32.894531 C 26.277344 32.5 26.445312 32.078125 26.546875 31.636719 C 26.652344 31.195312 26.691406 30.746094 26.667969 30.292969 C 26.644531 29.839844 26.554688 29.398438 26.40625 28.972656 C 26.253906 28.542969 26.042969 28.144531 25.777344 27.777344 C 25.660156 27.628906 25.578125 27.464844 25.523438 27.28125 C 25.46875 27.101562 25.453125 26.917969 25.46875 26.726562 C 25.484375 26.539062 25.535156 26.363281 25.621094 26.195312 C 25.707031 26.023438 25.820312 25.878906 25.960938 25.753906 L 28.617188 23.398438 C 28.757812 23.273438 28.917969 23.179688 29.097656 23.113281 C 29.273438 23.050781 29.457031 23.019531 29.648438 23.027344 C 29.835938 23.03125 30.019531 23.074219 30.191406 23.148438 C 30.363281 23.222656 30.519531 23.328125 30.652344 23.460938 C 32.25 25.214844 34.527344 24.660156 36.5625 24.214844 C 37.332031 24.113281 38.023438 23.824219 38.636719 23.347656 C 39.25 22.871094 39.699219 22.273438 39.988281 21.550781 C 40.058594 21.378906 40.15625 21.222656 40.289062 21.085938 C 40.417969 20.949219 40.570312 20.839844 40.738281 20.761719 C 40.910156 20.679688 41.089844 20.636719 41.28125 20.625 C 41.46875 20.613281 41.652344 20.640625 41.832031 20.699219 L 45.199219 21.824219 C 45.378906 21.882812 45.542969 21.976562 45.6875 22.097656 C 45.832031 22.21875 45.949219 22.363281 46.039062 22.53125 C 46.125 22.699219 46.183594 22.878906 46.203125 23.066406 C 46.222656 23.253906 46.210938 23.441406 46.160156 23.621094 C 45.960938 24.371094 45.960938 25.117188 46.164062 25.867188 C 46.371094 26.613281 46.75 27.257812 47.300781 27.800781 C 48.660156 29.378906 50.152344 31.1875 52.480469 30.746094 C 52.667969 30.71875 52.855469 30.726562 53.039062 30.773438 C 53.222656 30.816406 53.390625 30.894531 53.542969 31 C 53.699219 31.109375 53.828125 31.242188 53.933594 31.402344 C 54.035156 31.558594 54.105469 31.730469 54.144531 31.917969 L 54.855469 35.394531 C 54.890625 35.582031 54.894531 35.765625 54.859375 35.953125 C 54.828125 36.136719 54.761719 36.3125 54.660156 36.472656 C 54.5625 36.632812 54.4375 36.769531 54.285156 36.882812 C 54.132812 36.996094 53.964844 37.074219 53.785156 37.125 C 53.027344 37.332031 52.375 37.714844 51.828125 38.277344 C 51.277344 38.835938 50.910156 39.496094 50.722656 40.257812 Z M 40.796875 29.40625 C 40.300781 29.242188 39.792969 29.125 39.273438 29.0625 C 38.753906 28.996094 38.234375 28.980469 37.710938 29.019531 C 37.1875 29.054688 36.675781 29.144531 36.171875 29.28125 C 35.664062 29.421875 35.179688 29.605469 34.710938 29.839844 C 34.242188 30.074219 33.800781 30.351562 33.386719 30.671875 C 32.972656 30.992188 32.597656 31.351562 32.253906 31.746094 C 31.910156 32.140625 31.609375 32.566406 31.347656 33.019531 C 31.089844 33.476562 30.875 33.949219 30.707031 34.445312 C 27.722656 44.574219 42.144531 49.386719 45.835938 39.496094 C 46 39 46.117188 38.492188 46.183594 37.972656 C 46.246094 37.453125 46.261719 36.929688 46.222656 36.410156 C 46.1875 35.886719 46.097656 35.375 45.960938 34.867188 C 45.824219 34.363281 45.636719 33.878906 45.402344 33.410156 C 45.167969 32.941406 44.890625 32.5 44.570312 32.085938 C 44.25 31.671875 43.890625 31.292969 43.496094 30.949219 C 43.101562 30.605469 42.675781 30.304688 42.222656 30.046875 C 41.769531 29.785156 41.292969 29.574219 40.796875 29.40625 Z M 36.914062 41.042969 C 36.648438 40.953125 36.394531 40.835938 36.152344 40.695312 C 35.914062 40.554688 35.6875 40.390625 35.476562 40.203125 C 35.265625 40.019531 35.078125 39.816406 34.90625 39.59375 C 34.738281 39.371094 34.589844 39.132812 34.464844 38.882812 C 34.34375 38.632812 34.246094 38.371094 34.171875 38.101562 C 34.097656 37.832031 34.054688 37.554688 34.035156 37.277344 C 34.015625 36.996094 34.023438 36.71875 34.058594 36.441406 C 34.09375 36.164062 34.15625 35.890625 34.246094 35.625 C 34.335938 35.359375 34.449219 35.105469 34.585938 34.863281 C 34.722656 34.621094 34.886719 34.390625 35.066406 34.179688 C 35.25 33.96875 35.453125 33.777344 35.671875 33.605469 C 35.894531 33.429688 36.128906 33.28125 36.378906 33.15625 C 36.628906 33.027344 36.886719 32.929688 37.15625 32.851562 C 37.425781 32.777344 37.699219 32.726562 37.980469 32.707031 C 38.257812 32.683594 38.539062 32.6875 38.816406 32.722656 C 39.09375 32.753906 39.367188 32.8125 39.632812 32.898438 C 39.898438 32.988281 40.148438 33.105469 40.390625 33.246094 C 40.632812 33.386719 40.859375 33.550781 41.070312 33.738281 C 41.277344 33.921875 41.46875 34.125 41.640625 34.347656 C 41.808594 34.570312 41.957031 34.808594 42.078125 35.058594 C 42.203125 35.308594 42.300781 35.570312 42.375 35.839844 C 42.445312 36.109375 42.492188 36.386719 42.511719 36.664062 C 42.53125 36.945312 42.523438 37.222656 42.488281 37.5 C 42.449219 37.777344 42.390625 38.050781 42.300781 38.316406 C 42.210938 38.582031 42.097656 38.835938 41.960938 39.078125 C 41.820312 39.320312 41.660156 39.550781 41.476562 39.761719 C 41.292969 39.972656 41.09375 40.164062 40.871094 40.335938 C 40.652344 40.511719 40.417969 40.660156 40.167969 40.785156 C 39.917969 40.914062 39.65625 41.011719 39.390625 41.089844 C 39.121094 41.164062 38.84375 41.214844 38.566406 41.234375 C 38.285156 41.257812 38.007812 41.253906 37.730469 41.21875 C 37.453125 41.1875 37.179688 41.128906 36.914062 41.042969 Z M 36.914062 41.042969 " clip-rule="nonzero"/></clipPath><linearGradient x1="-7.133969" gradientTransform="matrix(1.163672, 0.388366, -0.388366, 1.163672, 13.462951, -12.694527)" y1="31.926001" x2="70.21214" gradientUnits="userSpaceOnUse" y2="31.926001" id="4ec9bbcb4d"><stop stop-opacity="1" stop-color="rgb(0%, 75.299072%, 100%)" offset="0"/><stop stop-opacity="1" stop-color="rgb(0%, 75.299072%, 100%)" offset="0.125"/><stop stop-opacity="1" stop-color="rgb(0%, 75.299072%, 100%)" offset="0.132812"/><stop stop-opacity="1" stop-color="rgb(0.212097%, 75.259399%, 99.850464%)" offset="0.136719"/><stop stop-opacity="1" stop-color="rgb(0.42572%, 75.221252%, 99.702454%)" offset="0.140625"/><stop stop-opacity="1" stop-color="rgb(0.9552%, 75.123596%, 99.331665%)" offset="0.144531"/><stop stop-opacity="1" stop-color="rgb(1.48468%, 75.02594%, 98.962402%)" offset="0.148438"/><stop stop-opacity="1" stop-color="rgb(2.01416%, 74.928284%, 98.591614%)" offset="0.152344"/><stop stop-opacity="1" stop-color="rgb(2.545166%, 74.830627%, 98.222351%)" offset="0.15625"/><stop stop-opacity="1" stop-color="rgb(3.074646%, 74.732971%, 97.851562%)" offset="0.160156"/><stop stop-opacity="1" stop-color="rgb(3.605652%, 74.635315%, 97.4823%)" offset="0.164062"/><stop stop-opacity="1" stop-color="rgb(4.135132%, 74.537659%, 97.111511%)" offset="0.167969"/><stop stop-opacity="1" stop-color="rgb(4.666138%, 74.440002%, 96.742249%)" offset="0.171875"/><stop stop-opacity="1" stop-color="rgb(5.195618%, 74.342346%, 96.37146%)" offset="0.175781"/><stop stop-opacity="1" stop-color="rgb(5.725098%, 74.246216%, 96.002197%)" offset="0.179687"/><stop stop-opacity="1" stop-color="rgb(6.254578%, 74.14856%, 95.631409%)" offset="0.183594"/><stop stop-opacity="1" stop-color="rgb(6.785583%, 74.050903%, 95.262146%)" offset="0.1875"/><stop stop-opacity="1" stop-color="rgb(7.315063%, 73.953247%, 94.891357%)" offset="0.191406"/><stop stop-opacity="1" stop-color="rgb(7.846069%, 73.855591%, 94.522095%)" offset="0.195312"/><stop stop-opacity="1" stop-color="rgb(8.375549%, 73.757935%, 94.151306%)" offset="0.199219"/><stop stop-opacity="1" stop-color="rgb(8.906555%, 73.660278%, 93.782043%)" offset="0.203125"/><stop stop-opacity="1" stop-color="rgb(9.436035%, 73.562622%, 93.411255%)" offset="0.207031"/><stop stop-opacity="1" stop-color="rgb(9.967041%, 73.464966%, 93.041992%)" offset="0.210937"/><stop stop-opacity="1" stop-color="rgb(10.496521%, 73.36731%, 92.671204%)" offset="0.214844"/><stop stop-opacity="1" stop-color="rgb(11.026001%, 73.269653%, 92.301941%)" offset="0.21875"/><stop stop-opacity="1" stop-color="rgb(11.555481%, 73.171997%, 91.931152%)" offset="0.222656"/><stop stop-opacity="1" stop-color="rgb(12.086487%, 73.075867%, 91.56189%)" offset="0.226562"/><stop stop-opacity="1" stop-color="rgb(12.615967%, 72.97821%, 91.191101%)" offset="0.230469"/><stop stop-opacity="1" stop-color="rgb(13.146973%, 72.880554%, 90.821838%)" offset="0.234375"/><stop stop-opacity="1" stop-color="rgb(13.676453%, 72.782898%, 90.45105%)" offset="0.238281"/><stop stop-opacity="1" stop-color="rgb(14.207458%, 72.685242%, 90.081787%)" offset="0.242188"/><stop stop-opacity="1" stop-color="rgb(14.736938%, 72.587585%, 89.710999%)" offset="0.246094"/><stop stop-opacity="1" stop-color="rgb(15.266418%, 72.489929%, 89.341736%)" offset="0.25"/><stop stop-opacity="1" stop-color="rgb(15.795898%, 72.392273%, 88.972473%)" offset="0.253906"/><stop stop-opacity="1" stop-color="rgb(16.326904%, 72.294617%, 88.60321%)" offset="0.257812"/><stop stop-opacity="1" stop-color="rgb(16.856384%, 72.19696%, 88.232422%)" offset="0.261719"/><stop stop-opacity="1" stop-color="rgb(17.38739%, 72.099304%, 87.863159%)" offset="0.265625"/><stop stop-opacity="1" stop-color="rgb(17.91687%, 72.001648%, 87.492371%)" offset="0.269531"/><stop stop-opacity="1" stop-color="rgb(18.447876%, 71.905518%, 87.123108%)" offset="0.273438"/><stop stop-opacity="1" stop-color="rgb(18.977356%, 71.807861%, 86.752319%)" offset="0.277344"/><stop stop-opacity="1" stop-color="rgb(19.506836%, 71.710205%, 86.383057%)" offset="0.28125"/><stop stop-opacity="1" stop-color="rgb(20.036316%, 71.612549%, 86.012268%)" offset="0.285156"/><stop stop-opacity="1" stop-color="rgb(20.567322%, 71.514893%, 85.643005%)" offset="0.289062"/><stop stop-opacity="1" stop-color="rgb(21.096802%, 71.417236%, 85.272217%)" offset="0.292969"/><stop stop-opacity="1" stop-color="rgb(21.627808%, 71.31958%, 84.902954%)" offset="0.296875"/><stop stop-opacity="1" stop-color="rgb(22.157288%, 71.221924%, 84.532166%)" offset="0.300781"/><stop stop-opacity="1" stop-color="rgb(22.688293%, 71.124268%, 84.162903%)" offset="0.304687"/><stop stop-opacity="1" stop-color="rgb(23.217773%, 71.026611%, 83.792114%)" offset="0.308594"/><stop stop-opacity="1" stop-color="rgb(23.747253%, 70.928955%, 83.422852%)" offset="0.3125"/><stop stop-opacity="1" stop-color="rgb(24.276733%, 70.831299%, 83.052063%)" offset="0.316406"/><stop stop-opacity="1" stop-color="rgb(24.807739%, 70.735168%, 82.6828%)" offset="0.320312"/><stop stop-opacity="1" stop-color="rgb(25.337219%, 70.637512%, 82.312012%)" offset="0.324219"/><stop stop-opacity="1" stop-color="rgb(25.868225%, 70.539856%, 81.942749%)" offset="0.328125"/><stop stop-opacity="1" stop-color="rgb(26.397705%, 70.4422%, 81.57196%)" offset="0.332031"/><stop stop-opacity="1" stop-color="rgb(26.928711%, 70.344543%, 81.202698%)" offset="0.335937"/><stop stop-opacity="1" stop-color="rgb(27.458191%, 70.246887%, 80.831909%)" offset="0.339844"/><stop stop-opacity="1" stop-color="rgb(27.987671%, 70.149231%, 80.462646%)" offset="0.34375"/><stop stop-opacity="1" stop-color="rgb(28.517151%, 70.051575%, 80.091858%)" offset="0.347656"/><stop stop-opacity="1" stop-color="rgb(29.048157%, 69.953918%, 79.722595%)" offset="0.351562"/><stop stop-opacity="1" stop-color="rgb(29.577637%, 69.856262%, 79.351807%)" offset="0.355469"/><stop stop-opacity="1" stop-color="rgb(30.108643%, 69.758606%, 78.982544%)" offset="0.359375"/><stop stop-opacity="1" stop-color="rgb(30.638123%, 69.66095%, 78.611755%)" offset="0.363281"/><stop stop-opacity="1" stop-color="rgb(31.169128%, 69.564819%, 78.242493%)" offset="0.367187"/><stop stop-opacity="1" stop-color="rgb(31.698608%, 69.467163%, 77.871704%)" offset="0.371094"/><stop stop-opacity="1" stop-color="rgb(32.228088%, 69.369507%, 77.502441%)" offset="0.375"/><stop stop-opacity="1" stop-color="rgb(32.757568%, 69.271851%, 77.131653%)" offset="0.378906"/><stop stop-opacity="1" stop-color="rgb(33.288574%, 69.174194%, 76.76239%)" offset="0.382812"/><stop stop-opacity="1" stop-color="rgb(33.818054%, 69.076538%, 76.393127%)" offset="0.386719"/><stop stop-opacity="1" stop-color="rgb(34.34906%, 68.978882%, 76.023865%)" offset="0.390625"/><stop stop-opacity="1" stop-color="rgb(34.87854%, 68.881226%, 75.653076%)" offset="0.394531"/><stop stop-opacity="1" stop-color="rgb(35.409546%, 68.783569%, 75.283813%)" offset="0.398437"/><stop stop-opacity="1" stop-color="rgb(35.939026%, 68.685913%, 74.913025%)" offset="0.402344"/><stop stop-opacity="1" stop-color="rgb(36.468506%, 68.588257%, 74.543762%)" offset="0.40625"/><stop stop-opacity="1" stop-color="rgb(36.997986%, 68.490601%, 74.172974%)" offset="0.410156"/><stop stop-opacity="1" stop-color="rgb(37.528992%, 68.392944%, 73.803711%)" offset="0.414062"/><stop stop-opacity="1" stop-color="rgb(38.058472%, 68.295288%, 73.432922%)" offset="0.417969"/><stop stop-opacity="1" stop-color="rgb(38.589478%, 68.199158%, 73.06366%)" offset="0.421875"/><stop stop-opacity="1" stop-color="rgb(39.118958%, 68.101501%, 72.692871%)" offset="0.425781"/><stop stop-opacity="1" stop-color="rgb(39.649963%, 68.003845%, 72.323608%)" offset="0.429687"/><stop stop-opacity="1" stop-color="rgb(40.179443%, 67.906189%, 71.95282%)" offset="0.433594"/><stop stop-opacity="1" stop-color="rgb(40.708923%, 67.808533%, 71.583557%)" offset="0.4375"/><stop stop-opacity="1" stop-color="rgb(41.238403%, 67.710876%, 71.212769%)" offset="0.441406"/><stop stop-opacity="1" stop-color="rgb(41.769409%, 67.61322%, 70.843506%)" offset="0.445312"/><stop stop-opacity="1" stop-color="rgb(42.298889%, 67.515564%, 70.472717%)" offset="0.449219"/><stop stop-opacity="1" stop-color="rgb(42.829895%, 67.417908%, 70.103455%)" offset="0.453125"/><stop stop-opacity="1" stop-color="rgb(43.359375%, 67.320251%, 69.732666%)" offset="0.457031"/><stop stop-opacity="1" stop-color="rgb(43.890381%, 67.222595%, 69.363403%)" offset="0.460938"/><stop stop-opacity="1" stop-color="rgb(44.419861%, 67.124939%, 68.992615%)" offset="0.464844"/><stop stop-opacity="1" stop-color="rgb(44.950867%, 67.028809%, 68.623352%)" offset="0.46875"/><stop stop-opacity="1" stop-color="rgb(45.480347%, 66.931152%, 68.252563%)" offset="0.472656"/><stop stop-opacity="1" stop-color="rgb(46.009827%, 66.833496%, 67.883301%)" offset="0.476562"/><stop stop-opacity="1" stop-color="rgb(46.539307%, 66.73584%, 67.512512%)" offset="0.480469"/><stop stop-opacity="1" stop-color="rgb(47.070312%, 66.638184%, 67.14325%)" offset="0.484375"/><stop stop-opacity="1" stop-color="rgb(47.599792%, 66.540527%, 66.772461%)" offset="0.488281"/><stop stop-opacity="1" stop-color="rgb(48.130798%, 66.442871%, 66.403198%)" offset="0.492188"/><stop stop-opacity="1" stop-color="rgb(48.660278%, 66.345215%, 66.03241%)" offset="0.496094"/><stop stop-opacity="1" stop-color="rgb(49.191284%, 66.247559%, 65.663147%)" offset="0.5"/><stop stop-opacity="1" stop-color="rgb(49.720764%, 66.149902%, 65.292358%)" offset="0.503906"/><stop stop-opacity="1" stop-color="rgb(50.250244%, 66.052246%, 64.923096%)" offset="0.507812"/><stop stop-opacity="1" stop-color="rgb(50.779724%, 65.95459%, 64.552307%)" offset="0.511719"/><stop stop-opacity="1" stop-color="rgb(51.31073%, 65.858459%, 64.183044%)" offset="0.515625"/><stop stop-opacity="1" stop-color="rgb(51.84021%, 65.760803%, 63.813782%)" offset="0.519531"/><stop stop-opacity="1" stop-color="rgb(52.371216%, 65.663147%, 63.444519%)" offset="0.523438"/><stop stop-opacity="1" stop-color="rgb(52.900696%, 65.565491%, 63.07373%)" offset="0.527344"/><stop stop-opacity="1" stop-color="rgb(53.431702%, 65.467834%, 62.704468%)" offset="0.53125"/><stop stop-opacity="1" stop-color="rgb(53.961182%, 65.370178%, 62.333679%)" offset="0.535156"/><stop stop-opacity="1" stop-color="rgb(54.490662%, 65.272522%, 61.964417%)" offset="0.539062"/><stop stop-opacity="1" stop-color="rgb(55.020142%, 65.174866%, 61.593628%)" offset="0.542969"/><stop stop-opacity="1" stop-color="rgb(55.551147%, 65.077209%, 61.224365%)" offset="0.546875"/><stop stop-opacity="1" stop-color="rgb(56.080627%, 64.979553%, 60.853577%)" offset="0.550781"/><stop stop-opacity="1" stop-color="rgb(56.611633%, 64.881897%, 60.484314%)" offset="0.554688"/><stop stop-opacity="1" stop-color="rgb(57.141113%, 64.784241%, 60.113525%)" offset="0.558594"/><stop stop-opacity="1" stop-color="rgb(57.672119%, 64.68811%, 59.744263%)" offset="0.5625"/><stop stop-opacity="1" stop-color="rgb(58.201599%, 64.590454%, 59.373474%)" offset="0.566406"/><stop stop-opacity="1" stop-color="rgb(58.731079%, 64.492798%, 59.004211%)" offset="0.570312"/><stop stop-opacity="1" stop-color="rgb(59.260559%, 64.395142%, 58.633423%)" offset="0.574219"/><stop stop-opacity="1" stop-color="rgb(59.791565%, 64.297485%, 58.26416%)" offset="0.578125"/><stop stop-opacity="1" stop-color="rgb(60.321045%, 64.199829%, 57.893372%)" offset="0.582031"/><stop stop-opacity="1" stop-color="rgb(60.852051%, 64.102173%, 57.524109%)" offset="0.585938"/><stop stop-opacity="1" stop-color="rgb(61.381531%, 64.004517%, 57.15332%)" offset="0.589844"/><stop stop-opacity="1" stop-color="rgb(61.912537%, 63.90686%, 56.784058%)" offset="0.59375"/><stop stop-opacity="1" stop-color="rgb(62.442017%, 63.809204%, 56.413269%)" offset="0.597656"/><stop stop-opacity="1" stop-color="rgb(62.971497%, 63.711548%, 56.044006%)" offset="0.601563"/><stop stop-opacity="1" stop-color="rgb(63.500977%, 63.613892%, 55.673218%)" offset="0.605469"/><stop stop-opacity="1" stop-color="rgb(64.031982%, 63.517761%, 55.303955%)" offset="0.609375"/><stop stop-opacity="1" stop-color="rgb(64.561462%, 63.420105%, 54.933167%)" offset="0.613281"/><stop stop-opacity="1" stop-color="rgb(65.092468%, 63.322449%, 54.563904%)" offset="0.617188"/><stop stop-opacity="1" stop-color="rgb(65.621948%, 63.224792%, 54.193115%)" offset="0.621094"/><stop stop-opacity="1" stop-color="rgb(66.152954%, 63.127136%, 53.823853%)" offset="0.625"/><stop stop-opacity="1" stop-color="rgb(66.682434%, 63.02948%, 53.453064%)" offset="0.628906"/><stop stop-opacity="1" stop-color="rgb(67.211914%, 62.931824%, 53.083801%)" offset="0.632812"/><stop stop-opacity="1" stop-color="rgb(67.741394%, 62.834167%, 52.713013%)" offset="0.636719"/><stop stop-opacity="1" stop-color="rgb(68.2724%, 62.736511%, 52.34375%)" offset="0.640625"/><stop stop-opacity="1" stop-color="rgb(68.80188%, 62.638855%, 51.972961%)" offset="0.644531"/><stop stop-opacity="1" stop-color="rgb(69.332886%, 62.541199%, 51.603699%)" offset="0.648437"/><stop stop-opacity="1" stop-color="rgb(69.862366%, 62.443542%, 51.234436%)" offset="0.652344"/><stop stop-opacity="1" stop-color="rgb(70.393372%, 62.347412%, 50.865173%)" offset="0.65625"/><stop stop-opacity="1" stop-color="rgb(70.922852%, 62.249756%, 50.494385%)" offset="0.660156"/><stop stop-opacity="1" stop-color="rgb(71.452332%, 62.1521%, 50.125122%)" offset="0.664062"/><stop stop-opacity="1" stop-color="rgb(71.981812%, 62.054443%, 49.754333%)" offset="0.667969"/><stop stop-opacity="1" stop-color="rgb(72.512817%, 61.956787%, 49.385071%)" offset="0.671875"/><stop stop-opacity="1" stop-color="rgb(73.042297%, 61.859131%, 49.014282%)" offset="0.675781"/><stop stop-opacity="1" stop-color="rgb(73.573303%, 61.761475%, 48.64502%)" offset="0.679688"/><stop stop-opacity="1" stop-color="rgb(74.102783%, 61.663818%, 48.274231%)" offset="0.683594"/><stop stop-opacity="1" stop-color="rgb(74.633789%, 61.566162%, 47.904968%)" offset="0.6875"/><stop stop-opacity="1" stop-color="rgb(75.163269%, 61.468506%, 47.53418%)" offset="0.691406"/><stop stop-opacity="1" stop-color="rgb(75.694275%, 61.37085%, 47.164917%)" offset="0.695312"/><stop stop-opacity="1" stop-color="rgb(76.223755%, 61.273193%, 46.794128%)" offset="0.699219"/><stop stop-opacity="1" stop-color="rgb(76.753235%, 61.177063%, 46.424866%)" offset="0.703125"/><stop stop-opacity="1" stop-color="rgb(77.282715%, 61.079407%, 46.054077%)" offset="0.707031"/><stop stop-opacity="1" stop-color="rgb(77.813721%, 60.98175%, 45.684814%)" offset="0.710938"/><stop stop-opacity="1" stop-color="rgb(78.343201%, 60.884094%, 45.314026%)" offset="0.714844"/><stop stop-opacity="1" stop-color="rgb(78.874207%, 60.786438%, 44.944763%)" offset="0.71875"/><stop stop-opacity="1" stop-color="rgb(79.403687%, 60.688782%, 44.573975%)" offset="0.722656"/><stop stop-opacity="1" stop-color="rgb(79.934692%, 60.591125%, 44.204712%)" offset="0.726562"/><stop stop-opacity="1" stop-color="rgb(80.464172%, 60.493469%, 43.833923%)" offset="0.730469"/><stop stop-opacity="1" stop-color="rgb(80.993652%, 60.395813%, 43.464661%)" offset="0.734375"/><stop stop-opacity="1" stop-color="rgb(81.523132%, 60.298157%, 43.093872%)" offset="0.738281"/><stop stop-opacity="1" stop-color="rgb(82.054138%, 60.2005%, 42.724609%)" offset="0.742188"/><stop stop-opacity="1" stop-color="rgb(82.583618%, 60.102844%, 42.353821%)" offset="0.746094"/><stop stop-opacity="1" stop-color="rgb(83.114624%, 60.006714%, 41.984558%)" offset="0.75"/><stop stop-opacity="1" stop-color="rgb(83.644104%, 59.909058%, 41.61377%)" offset="0.753906"/><stop stop-opacity="1" stop-color="rgb(84.17511%, 59.811401%, 41.244507%)" offset="0.757812"/><stop stop-opacity="1" stop-color="rgb(84.70459%, 59.713745%, 40.873718%)" offset="0.761719"/><stop stop-opacity="1" stop-color="rgb(85.23407%, 59.616089%, 40.504456%)" offset="0.765625"/><stop stop-opacity="1" stop-color="rgb(85.76355%, 59.518433%, 40.133667%)" offset="0.769531"/><stop stop-opacity="1" stop-color="rgb(86.294556%, 59.420776%, 39.764404%)" offset="0.773438"/><stop stop-opacity="1" stop-color="rgb(86.824036%, 59.32312%, 39.393616%)" offset="0.777344"/><stop stop-opacity="1" stop-color="rgb(87.355042%, 59.225464%, 39.024353%)" offset="0.78125"/><stop stop-opacity="1" stop-color="rgb(87.884521%, 59.127808%, 38.65509%)" offset="0.785156"/><stop stop-opacity="1" stop-color="rgb(88.415527%, 59.030151%, 38.285828%)" offset="0.789062"/><stop stop-opacity="1" stop-color="rgb(88.945007%, 58.932495%, 37.915039%)" offset="0.792969"/><stop stop-opacity="1" stop-color="rgb(89.474487%, 58.836365%, 37.545776%)" offset="0.796875"/><stop stop-opacity="1" stop-color="rgb(90.003967%, 58.738708%, 37.174988%)" offset="0.800781"/><stop stop-opacity="1" stop-color="rgb(90.534973%, 58.641052%, 36.805725%)" offset="0.804688"/><stop stop-opacity="1" stop-color="rgb(91.064453%, 58.543396%, 36.434937%)" offset="0.808594"/><stop stop-opacity="1" stop-color="rgb(91.595459%, 58.44574%, 36.065674%)" offset="0.8125"/><stop stop-opacity="1" stop-color="rgb(92.124939%, 58.348083%, 35.694885%)" offset="0.816406"/><stop stop-opacity="1" stop-color="rgb(92.655945%, 58.250427%, 35.325623%)" offset="0.820312"/><stop stop-opacity="1" stop-color="rgb(93.185425%, 58.152771%, 34.954834%)" offset="0.824219"/><stop stop-opacity="1" stop-color="rgb(93.714905%, 58.055115%, 34.585571%)" offset="0.828125"/><stop stop-opacity="1" stop-color="rgb(94.244385%, 57.957458%, 34.214783%)" offset="0.832031"/><stop stop-opacity="1" stop-color="rgb(94.775391%, 57.859802%, 33.84552%)" offset="0.835938"/><stop stop-opacity="1" stop-color="rgb(95.304871%, 57.762146%, 33.474731%)" offset="0.839844"/><stop stop-opacity="1" stop-color="rgb(95.835876%, 57.666016%, 33.105469%)" offset="0.84375"/><stop stop-opacity="1" stop-color="rgb(96.365356%, 57.568359%, 32.73468%)" offset="0.847656"/><stop stop-opacity="1" stop-color="rgb(96.896362%, 57.470703%, 32.365417%)" offset="0.851563"/><stop stop-opacity="1" stop-color="rgb(97.425842%, 57.373047%, 31.994629%)" offset="0.855469"/><stop stop-opacity="1" stop-color="rgb(97.955322%, 57.275391%, 31.625366%)" offset="0.859375"/><stop stop-opacity="1" stop-color="rgb(98.484802%, 57.177734%, 31.254578%)" offset="0.863281"/><stop stop-opacity="1" stop-color="rgb(99.015808%, 57.080078%, 30.885315%)" offset="0.867188"/><stop stop-opacity="1" stop-color="rgb(99.507141%, 56.988525%, 30.541992%)" offset="0.871094"/><stop stop-opacity="1" stop-color="rgb(100%, 56.898499%, 30.198669%)" offset="0.875"/><stop stop-opacity="1" stop-color="rgb(100%, 56.898499%, 30.198669%)" offset="1"/></linearGradient></defs><g clip-path="url(#a1919ec22c)"><g clip-path="url(#d74ef07816)"><g clip-path="url(#7e546dd3d4)"><g clip-path="url(#c7b1b18fa8)"><path fill="url(#4ec9bbcb4d)" d="M 7.515625 -22.523438 L -22.523438 67.484375 L 67.484375 97.523438 L 97.523438 7.515625 Z M 7.515625 -22.523438 " fill-rule="nonzero"/></g></g></g></g></svg>